<svg width="34" height="34" viewBox="0 0 34 34" fill="none" xmlns="http://www.w3.org/2000/svg">
<g clip-path="url(#clip0_2507_759)">
<path fill-rule="evenodd" clip-rule="evenodd" d="M23.1111 2.25C23.5163 2.25 23.9049 2.41096 24.1914 2.69748C24.4779 2.98399 24.6389 3.37259 24.6389 3.77778V5.30556H27.6944C28.5048 5.30556 29.282 5.62748 29.855 6.20051C30.4281 6.77353 30.75 7.55073 30.75 8.36111V26.6944C30.75 27.5048 30.4281 28.282 29.855 28.855C29.282 29.4281 28.5048 29.75 27.6944 29.75H6.30556C5.49517 29.75 4.71798 29.4281 4.14495 28.855C3.57192 28.282 3.25 27.5048 3.25 26.6944V8.36111C3.25 7.55073 3.57192 6.77353 4.14495 6.20051C4.71798 5.62748 5.49517 5.30556 6.30556 5.30556H9.36111V3.77778C9.36111 3.37259 9.52207 2.98399 9.80859 2.69748C10.0951 2.41096 10.4837 2.25 10.8889 2.25C11.2941 2.25 11.6827 2.41096 11.9692 2.69748C12.2557 2.98399 12.4167 3.37259 12.4167 3.77778V5.30556H21.5833V3.77778C21.5833 3.37259 21.7443 2.98399 22.0308 2.69748C22.3173 2.41096 22.7059 2.25 23.1111 2.25ZM10.9042 22.1111H10.8889C10.4995 22.1115 10.125 22.2606 9.8418 22.528C9.55865 22.7953 9.38825 23.1606 9.36543 23.5494C9.34261 23.9381 9.46909 24.3209 9.71902 24.6195C9.96895 24.9181 10.3235 25.11 10.7101 25.156L10.9042 25.1667C11.3094 25.1667 11.698 25.0057 11.9845 24.7192C12.271 24.4327 12.4319 24.0441 12.4319 23.6389C12.4319 23.2337 12.271 22.8451 11.9845 22.5586C11.698 22.2721 11.3094 22.1111 10.9042 22.1111ZM17.0153 22.1111H17C16.6106 22.1115 16.2361 22.2606 15.9529 22.528C15.6698 22.7953 15.4994 23.1606 15.4765 23.5494C15.4537 23.9381 15.5802 24.3209 15.8301 24.6195C16.0801 24.9181 16.4346 25.11 16.8212 25.156L17.0153 25.1667C17.4205 25.1667 17.8091 25.0057 18.0956 24.7192C18.3821 24.4327 18.5431 24.0441 18.5431 23.6389C18.5431 23.2337 18.3821 22.8451 18.0956 22.5586C17.8091 22.2721 17.4205 22.1111 17.0153 22.1111ZM23.1264 22.1111H23.1111C22.7217 22.1115 22.3472 22.2606 22.064 22.528C21.7809 22.7953 21.6105 23.1606 21.5877 23.5494C21.5648 23.9381 21.6913 24.3209 21.9412 24.6195C22.1912 24.9181 22.5457 25.11 22.9324 25.156L23.1264 25.1667C23.5316 25.1667 23.9202 25.0057 24.2067 24.7192C24.4932 24.4327 24.6542 24.0441 24.6542 23.6389C24.6542 23.2337 24.4932 22.8451 24.2067 22.5586C23.9202 22.2721 23.5316 22.1111 23.1264 22.1111ZM10.9042 16H10.8889C10.4995 16.0004 10.125 16.1495 9.8418 16.4169C9.55865 16.6842 9.38825 17.0495 9.36543 17.4382C9.34261 17.827 9.46909 18.2097 9.71902 18.5084C9.96895 18.807 10.3235 18.9989 10.7101 19.0449L10.9042 19.0556C11.3094 19.0556 11.698 18.8946 11.9845 18.6081C12.271 18.3216 12.4319 17.933 12.4319 17.5278C12.4319 17.1226 12.271 16.734 11.9845 16.4475C11.698 16.161 11.3094 16 10.9042 16ZM17.0153 16H17C16.6106 16.0004 16.2361 16.1495 15.9529 16.4169C15.6698 16.6842 15.4994 17.0495 15.4765 17.4382C15.4537 17.827 15.5802 18.2097 15.8301 18.5084C16.0801 18.807 16.4346 18.9989 16.8212 19.0449L17.0153 19.0556C17.4205 19.0556 17.8091 18.8946 18.0956 18.6081C18.3821 18.3216 18.5431 17.933 18.5431 17.5278C18.5431 17.1226 18.3821 16.734 18.0956 16.4475C17.8091 16.161 17.4205 16 17.0153 16ZM23.1264 16H23.1111C22.7217 16.0004 22.3472 16.1495 22.064 16.4169C21.7809 16.6842 21.6105 17.0495 21.5877 17.4382C21.5648 17.827 21.6913 18.2097 21.9412 18.5084C22.1912 18.807 22.5457 18.9989 22.9324 19.0449L23.1264 19.0556C23.5316 19.0556 23.9202 18.8946 24.2067 18.6081C24.4932 18.3216 24.6542 17.933 24.6542 17.5278C24.6542 17.1226 24.4932 16.734 24.2067 16.4475C23.9202 16.161 23.5316 16 23.1264 16ZM27.6944 8.36111H6.30556V11.4167H27.6944V8.36111Z" fill="#C6DEF6"/>
</g>
<defs>
<clipPath id="clip0_2507_759">
<rect width="34" height="34" fill="white"/>
</clipPath>
</defs>
</svg>
