<svg width="30" height="30" viewBox="0 0 30 30" fill="none" xmlns="http://www.w3.org/2000/svg">
<path d="M22.5125 11.7215C22.9492 11.6342 23.3995 11.6412 23.8332 11.7421C24.2669 11.843 24.6741 12.0354 25.0274 12.3065C25.3807 12.5775 25.672 12.9209 25.8818 13.3138C26.0916 13.7066 26.215 14.1397 26.2438 14.584L26.25 14.7865V21.699C26.25 22.528 25.9754 23.3336 25.469 23.9899C24.9627 24.6462 24.2531 25.1163 23.4513 25.3265L23.235 25.3765L16.2375 26.7765C15.8008 26.8639 15.3505 26.8568 14.9168 26.756C14.4831 26.6551 14.0759 26.4627 13.7226 26.1916C13.3693 25.9206 13.078 25.5771 12.8682 25.1843C12.6584 24.7915 12.535 24.3584 12.5063 23.914L12.5 23.7115V16.799C12.5 15.9701 12.7746 15.1645 13.281 14.5082C13.7873 13.8519 14.4969 13.3818 15.2987 13.1715L15.515 13.1215L22.5125 11.7215ZM18.1375 7.59779C18.5742 7.51047 19.0245 7.51749 19.4582 7.61836C19.8919 7.71924 20.2991 7.91165 20.6524 8.18271C21.0057 8.45376 21.297 8.7972 21.5068 9.19C21.7166 9.58281 21.84 10.0159 21.8688 10.4603L21.875 10.6628V10.8278L15.27 12.149C14.1794 12.3673 13.1927 12.9429 12.466 13.7848C11.7393 14.6268 11.314 15.687 11.2575 16.7978L11.25 17.0515V22.714C10.4574 22.7136 9.69448 22.4123 9.11554 21.8709C8.53659 21.3296 8.18479 20.5886 8.13125 19.7978L8.125 19.5878V12.6753C8.12489 11.8465 8.39935 11.041 8.90548 10.3847C9.41161 9.72844 10.1209 9.2583 10.9225 9.04779L11.14 8.99779L18.1375 7.59779ZM13.7625 3.22279C14.1991 3.13548 14.6493 3.14246 15.0829 3.24326C15.5166 3.34407 15.9237 3.53637 16.277 3.80729C16.6303 4.07821 16.9216 4.42149 17.1314 4.81415C17.3413 5.20681 17.4648 5.63977 17.4937 6.08404L17.5 6.28654V6.45154L10.895 7.77154C9.80421 7.98982 8.81736 8.56563 8.09062 9.40783C7.36387 10.25 6.93874 11.3105 6.8825 12.4215L6.875 12.6753V18.3378C6.08238 18.3374 5.31948 18.036 4.74054 17.4947C4.16159 16.9533 3.80979 16.2124 3.75625 15.4215L3.75 15.2115V8.29904C3.74989 7.47025 4.02435 6.66478 4.53048 6.00849C5.03661 5.35219 5.74589 4.88206 6.5475 4.67154L6.765 4.62154L13.7625 3.22279Z" fill="#F2F5F7"/>
</svg>
