<svg width="36" height="34" viewBox="0 0 36 34" fill="none" xmlns="http://www.w3.org/2000/svg">
<path d="M1.525 6.61194L15.6695 20.7581C16.088 21.1768 16.6469 21.4254 17.2381 21.4557C17.8293 21.486 18.4107 21.2959 18.8698 20.9222L19.0515 20.7581L33.1864 6.6215C33.2327 6.79681 33.2629 6.97531 33.2789 7.15859L33.2916 7.4375V26.5625C33.2919 27.3667 32.9882 28.1412 32.4414 28.7309C31.8946 29.3205 31.1451 29.6817 30.3432 29.742L30.1041 29.75H4.60413C3.79996 29.7503 3.02541 29.4465 2.43575 28.8997C1.84609 28.3529 1.48491 27.6035 1.42459 26.8016L1.41663 26.5625V7.4375C1.41663 7.24625 1.43256 7.06138 1.46444 6.87969L1.525 6.61194ZM30.1041 4.25C30.297 4.25 30.4866 4.26594 30.6699 4.29941L30.9408 4.36156L17.3621 17.9403L3.77856 4.35837C3.95388 4.31056 4.13556 4.27869 4.32044 4.26275L4.60413 4.25H30.1041Z" fill="#C6DEF6"/>
</svg>
