<svg width="30" height="30" viewBox="0 0 30 30" fill="none" xmlns="http://www.w3.org/2000/svg">
<path d="M11.875 2.49973C12.6684 2.49961 13.4321 2.80127 14.0113 3.34353C14.5905 3.88579 14.9417 4.62804 14.9937 5.41973L15 5.62473V11.381L21.8025 12.1372C22.9819 12.2683 24.0762 12.8146 24.8898 13.6783C25.7035 14.5421 26.1834 15.6671 26.2438 16.8522L26.25 17.106V17.4997C26.25 20.0978 25.2388 22.5938 23.4307 24.4594C21.6225 26.3249 19.1593 27.4135 16.5625 27.4947L16.25 27.4997H15.4075C13.6106 27.4997 11.8469 27.0155 10.3019 26.098C8.75682 25.1805 7.48755 23.8637 6.6275 22.286L6.46375 21.9722L2.91125 14.8672C2.46125 13.9672 2.795 12.7635 3.845 12.3322C5.14875 11.7985 6.3875 11.6985 7.66375 12.3472C7.94125 12.4885 8.21375 12.6622 8.48125 12.8647L8.75 13.0772V5.62473C8.75 4.79593 9.07924 4.00108 9.66529 3.41502C10.2513 2.82897 11.0462 2.49973 11.875 2.49973ZM5 7.49973C5.33152 7.49973 5.64946 7.63143 5.88388 7.86585C6.1183 8.10027 6.25 8.41821 6.25 8.74973C6.25 9.08125 6.1183 9.3992 5.88388 9.63362C5.64946 9.86804 5.33152 9.99973 5 9.99973H3.75C3.41848 9.99973 3.10054 9.86804 2.86612 9.63362C2.6317 9.3992 2.5 9.08125 2.5 8.74973C2.5 8.41821 2.6317 8.10027 2.86612 7.86585C3.10054 7.63143 3.41848 7.49973 3.75 7.49973H5ZM20 6.24973C20.3186 6.25009 20.625 6.37208 20.8567 6.59079C21.0884 6.8095 21.2278 7.10842 21.2465 7.42648C21.2651 7.74453 21.1617 8.05771 20.9572 8.30202C20.7527 8.54634 20.4626 8.70335 20.1463 8.74098L20 8.74973H18.75C18.4314 8.74938 18.125 8.62738 17.8933 8.40867C17.6616 8.18996 17.5222 7.89104 17.5035 7.57299C17.4849 7.25494 17.5883 6.94176 17.7928 6.69744C17.9973 6.45313 18.2874 6.29611 18.6038 6.25848L18.75 6.24973H20ZM5.88375 1.61598L7.13375 2.86598C7.36145 3.10174 7.48744 3.41749 7.48459 3.74523C7.48174 4.07298 7.35028 4.3865 7.11852 4.61826C6.88676 4.85002 6.57325 4.98148 6.2455 4.98433C5.91776 4.98717 5.602 4.86118 5.36625 4.63348L4.11625 3.38348C3.88855 3.14773 3.76256 2.83198 3.76541 2.50423C3.76826 2.17649 3.89972 1.86297 4.13148 1.63121C4.36324 1.39945 4.67675 1.26799 5.0045 1.26514C5.33224 1.26229 5.648 1.38829 5.88375 1.61598ZM19.6337 1.61598C19.8681 1.85039 19.9997 2.16828 19.9997 2.49973C19.9997 2.83119 19.8681 3.14907 19.6337 3.38348L18.3837 4.63348C18.2684 4.75287 18.1305 4.8481 17.978 4.91361C17.8255 4.97912 17.6615 5.0136 17.4955 5.01505C17.3295 5.01649 17.1649 4.98486 17.0113 4.92201C16.8577 4.85916 16.7181 4.76634 16.6008 4.64898C16.4834 4.53161 16.3906 4.39205 16.3277 4.23843C16.2649 4.08481 16.2332 3.92021 16.2347 3.75423C16.2361 3.58826 16.2706 3.42423 16.3361 3.27173C16.4016 3.11922 16.4969 2.98129 16.6163 2.86598L17.8663 1.61598C18.1007 1.38164 18.4185 1.25 18.75 1.25C19.0815 1.25 19.3993 1.38164 19.6337 1.61598Z" fill="#F2F5F7"/>
</svg>
