<svg width="30" height="30" viewBox="0 0 30 30" fill="none" xmlns="http://www.w3.org/2000/svg">
<path d="M13.9962 3.43658L14.1687 3.52783L23.9112 9.15283C24.456 9.46741 24.8621 9.97578 25.0486 10.5765C25.2351 11.1773 25.1883 11.8263 24.9175 12.3941L24.8262 12.5678L17.3262 25.5578C17.0116 26.1026 16.5033 26.5087 15.9025 26.6952C15.3017 26.8817 14.6527 26.8349 14.085 26.5641L13.9112 26.4728L4.16873 20.8478C3.62367 20.5332 3.21732 20.0246 3.03079 19.4236C2.84426 18.8225 2.89129 18.1732 3.16248 17.6053L3.25373 17.4328L8.87873 7.69033L6.71373 6.44033C6.43547 6.2819 6.22862 6.02274 6.13583 5.71629C6.04305 5.40983 6.0714 5.07945 6.21504 4.79329C6.35869 4.50712 6.60667 4.28699 6.90785 4.17829C7.20903 4.06959 7.54043 4.08061 7.83373 4.20908L7.96373 4.27533L10.1287 5.52533L10.7537 4.44283C11.0506 3.92777 11.5214 3.53538 12.0815 3.33607C12.6416 3.13677 13.2544 3.1436 13.81 3.35533L13.9962 3.43658ZM25.3787 14.0366L25.625 13.7503L25.72 13.8591L25.9675 14.1528L26.1887 14.4278L26.435 14.7503L26.69 15.1053C27.1125 15.7166 27.5 16.4053 27.5 16.8753C27.5 17.3726 27.3024 17.8495 26.9508 18.2012C26.5992 18.5528 26.1223 18.7503 25.625 18.7503C25.1277 18.7503 24.6508 18.5528 24.2992 18.2012C23.9475 17.8495 23.75 17.3726 23.75 16.8753C23.75 16.3103 24.3075 15.4316 24.815 14.7503L25.0612 14.4278L25.3787 14.0366ZM12.9187 5.69283L12.2937 6.77533L13.3762 7.40033C13.661 7.56727 13.8682 7.84006 13.9525 8.15918C14.0369 8.4783 13.9916 8.81784 13.8266 9.1037C13.6615 9.38956 13.3901 9.59853 13.0716 9.68502C12.753 9.7715 12.4132 9.72848 12.1262 9.56533L11.0437 8.94033L8.98873 12.5003H21.9787L22.6612 11.3178L12.9187 5.69283Z" fill="#F2F5F7"/>
</svg>
