<svg width="15" height="25" viewBox="0 0 15 25" fill="none" xmlns="http://www.w3.org/2000/svg">
<path fill-rule="evenodd" clip-rule="evenodd" d="M0.549343 13.8307C0.197835 13.479 0.000368059 13.0022 0.000368059 12.505C0.000368059 12.0079 0.197835 11.531 0.549343 11.1794L11.1562 0.572533C11.3292 0.393451 11.5361 0.250608 11.7648 0.152341C11.9936 0.0540744 12.2396 0.00235188 12.4886 0.00018847C12.7376 -0.00197494 12.9844 0.0454654 13.2149 0.139742C13.4453 0.234019 13.6547 0.373245 13.8307 0.549294C14.0068 0.725343 14.146 0.934688 14.2403 1.16512C14.3345 1.39555 14.382 1.64245 14.3798 1.89141C14.3776 2.14037 14.3259 2.38641 14.2277 2.61517C14.1294 2.84392 13.9865 3.05082 13.8075 3.22378L4.52622 12.505L13.8075 21.7863C14.149 22.1399 14.338 22.6135 14.3337 23.1052C14.3295 23.5968 14.1323 24.0671 13.7846 24.4147C13.437 24.7623 12.9667 24.9595 12.4751 24.9638C11.9835 24.9681 11.5098 24.7791 11.1562 24.4375L0.549343 13.8307Z" fill="#001A33"/>
</svg>
