<svg width="15" height="25" viewBox="0 0 15 25" fill="none" xmlns="http://www.w3.org/2000/svg">
<path fill-rule="evenodd" clip-rule="evenodd" d="M13.8305 11.1332C14.182 11.4848 14.3795 11.9617 14.3795 12.4588C14.3795 12.956 14.182 13.4328 13.8305 13.7845L3.22367 24.3913C3.0507 24.5704 2.84381 24.7133 2.61505 24.8115C2.38629 24.9098 2.14025 24.9615 1.89129 24.9637C1.64233 24.9658 1.39543 24.9184 1.165 24.8241C0.934572 24.7299 0.725223 24.5906 0.549174 24.4146C0.373126 24.2385 0.233901 24.0292 0.139624 23.7988C0.0453477 23.5683 -0.00209261 23.3214 7.07945e-05 23.0725C0.0022342 22.8235 0.0539585 22.5775 0.152225 22.3487C0.250492 22.1199 0.393333 21.9131 0.572415 21.7401L9.85367 12.4588L0.572415 3.17759C0.230868 2.82396 0.0418791 2.35033 0.0461511 1.85871C0.0504232 1.36709 0.247615 0.896815 0.595255 0.549175C0.942895 0.201534 1.41317 0.00434292 1.90479 7.088e-05C2.39641 -0.00420116 2.87004 0.184788 3.22367 0.526335L13.8305 11.1332Z" fill="#001A33"/>
</svg>
