<svg width="30" height="30" viewBox="0 0 30 30" fill="none" xmlns="http://www.w3.org/2000/svg">
<path d="M18.2751 3.327C18.5124 3.39339 18.7342 3.50588 18.928 3.65805C19.1217 3.81021 19.2836 3.99908 19.4043 4.21384C19.5251 4.4286 19.6023 4.66506 19.6316 4.90968C19.6609 5.1543 19.6417 5.4023 19.5751 5.6395L14.0363 25.3733C13.9021 25.8521 13.5831 26.2581 13.1495 26.5017C12.716 26.7454 12.2034 26.8069 11.7245 26.6726C11.2456 26.5384 10.8397 26.2194 10.596 25.7858C10.3523 25.3522 10.2908 24.8396 10.4251 24.3608L15.9638 4.6245C16.0304 4.38736 16.1429 4.16564 16.2952 3.97201C16.4474 3.77839 16.6363 3.61665 16.851 3.49604C17.0658 3.37543 17.3022 3.29832 17.5467 3.2691C17.7913 3.23988 18.0392 3.25913 18.2763 3.32575L18.2751 3.327ZM9.4501 8.37075C9.80122 8.72232 9.99845 9.19888 9.99845 9.69575C9.99845 10.1926 9.80122 10.6692 9.4501 11.0208L5.4751 14.9995L9.4526 18.977C9.80418 19.3287 10.0016 19.8057 10.0015 20.3031C10.0014 20.8004 9.80372 21.2773 9.45197 21.6289C9.10023 21.9805 8.62323 22.1779 8.12591 22.1778C7.62858 22.1777 7.15168 21.98 6.8001 21.6283L1.49635 16.3245C1.14522 15.9729 0.947998 15.4964 0.947998 14.9995C0.947998 14.5026 1.14522 14.0261 1.49635 13.6745L6.79885 8.37075C6.97297 8.19652 7.17973 8.0583 7.40729 7.96399C7.63485 7.86969 7.87877 7.82115 8.1251 7.82115C8.37143 7.82115 8.61534 7.86969 8.84291 7.96399C9.07047 8.0583 9.27597 8.19652 9.4501 8.37075ZM20.5501 11.0208C20.3659 10.8491 20.2181 10.6421 20.1156 10.4121C20.0132 10.1821 19.9581 9.93382 19.9536 9.68206C19.9492 9.4303 19.9955 9.18023 20.0898 8.94676C20.1841 8.71329 20.3245 8.5012 20.5025 8.32316C20.6805 8.14511 20.8926 8.00475 21.1261 7.91045C21.3596 7.81614 21.6096 7.76983 21.8614 7.77427C22.1132 7.77872 22.3614 7.83382 22.5914 7.9363C22.8214 8.03878 23.0284 8.18654 23.2001 8.37075L28.5038 13.6733C28.8554 14.0249 29.0528 14.5017 29.0528 14.9989C29.0528 15.4961 28.8554 15.9729 28.5038 16.3245L23.2013 21.6283C23.0273 21.8024 22.8206 21.9406 22.5931 22.0349C22.3656 22.1292 22.1218 22.1777 21.8755 22.1778C21.6293 22.1778 21.3854 22.1294 21.1579 22.0352C20.9304 21.941 20.7236 21.803 20.5495 21.6289C20.3753 21.4548 20.2371 21.2481 20.1428 21.0206C20.0486 20.7931 20 20.5493 19.9999 20.3031C19.9999 20.0568 20.0483 19.813 20.1425 19.5854C20.2367 19.3579 20.3748 19.1512 20.5488 18.977L24.5263 14.9995L20.5501 11.0208Z" fill="#F2F5F7"/>
</svg>
