<svg width="24" height="24" viewBox="0 0 24 24" fill="none" xmlns="http://www.w3.org/2000/svg">
<g clip-path="url(#clip0_2469_588)">
<path fill-rule="evenodd" clip-rule="evenodd" d="M13.4142 2.80725L21.1922 10.5863C21.5672 10.9613 21.7778 11.4699 21.7778 12.0003C21.7778 12.5306 21.5672 13.0392 21.1922 13.4143L13.4142 21.1923C13.0392 21.5672 12.5306 21.7778 12.0002 21.7778C11.4699 21.7778 10.9613 21.5672 10.5862 21.1923L2.80823 13.4143C2.43329 13.0392 2.22266 12.5306 2.22266 12.0003C2.22266 11.4699 2.43329 10.9613 2.80823 10.5863L10.5862 2.80725C10.9613 2.43231 11.4699 2.22168 12.0002 2.22168C12.5306 2.22168 13.0392 2.43231 13.4142 2.80725ZM12.0022 15.0003C11.7472 15 11.5017 15.0973 11.316 15.2721C11.1302 15.4469 11.0183 15.6861 11.0031 15.9406C10.9879 16.1952 11.0706 16.446 11.2342 16.6417C11.3978 16.8374 11.63 16.9631 11.8832 16.9933L12.0032 17.0003C12.2684 17.0003 12.5228 16.8949 12.7103 16.7074C12.8979 16.5198 13.0032 16.2655 13.0032 16.0003C13.0032 15.735 12.8979 15.4807 12.7103 15.2931C12.5228 15.1056 12.2684 15.0003 12.0032 15.0003H12.0022ZM12.0002 8.00025C11.8073 8.00016 11.6163 8.03884 11.4386 8.11401C11.2609 8.18917 11.1001 8.29928 10.9657 8.4378C10.8314 8.57632 10.7263 8.74042 10.6567 8.92036C10.587 9.1003 10.5542 9.2924 10.5602 9.48525L10.5702 9.62025L11.0082 13.1243C11.0371 13.3564 11.1465 13.5711 11.3173 13.731C11.4881 13.8908 11.7096 13.9857 11.9431 13.9992C12.1767 14.0126 12.4076 13.9437 12.5956 13.8045C12.7836 13.6653 12.9169 13.4646 12.9722 13.2373L12.9922 13.1243L13.4302 9.62025C13.4556 9.41747 13.4376 9.21162 13.3773 9.01634C13.3171 8.82107 13.216 8.64085 13.0807 8.48764C12.9455 8.33443 12.7792 8.21173 12.5929 8.1277C12.4066 8.04367 12.2046 8.00023 12.0002 8.00025Z" fill="#001A33"/>
</g>
<defs>
<clipPath id="clip0_2469_588">
<rect width="24" height="24" fill="white"/>
</clipPath>
</defs>
</svg>
