<svg width="24" height="24" viewBox="0 0 24 24" fill="none" xmlns="http://www.w3.org/2000/svg">
<g clip-path="url(#clip0_2469_596)">
<path fill-rule="evenodd" clip-rule="evenodd" d="M22.017 3.87355L21.427 5.45455C21.1851 6.02111 20.9411 6.58678 20.695 7.15155C20.017 8.60655 19.083 10.3075 17.968 11.4815C16.902 12.6015 15.294 13.6345 14.006 14.3675C14.1758 15.1803 14.1404 16.0226 13.903 16.8182C13.6655 17.6139 13.2335 18.3378 12.646 18.9245C10.376 21.1945 7.83999 21.1945 5.95399 20.6345C4.52399 20.2085 3.34799 19.4365 2.22399 18.4865C2.17779 18.4477 2.14113 18.3988 2.11683 18.3435C2.09253 18.2883 2.08126 18.2282 2.08386 18.1679C2.08647 18.1076 2.1029 18.0487 2.13188 17.9958C2.16085 17.9428 2.20161 17.8972 2.25099 17.8625L2.75099 17.5005C3.42299 16.9935 4.07599 16.3745 4.24099 15.5455C4.35599 14.6205 4.42099 14.1155 4.43799 14.0325C4.57599 13.3435 4.86799 12.5615 5.57599 11.8525C6.16263 11.2652 6.88638 10.8333 7.68183 10.5958C8.47729 10.3584 9.31938 10.3229 10.132 10.4925C10.865 9.20555 11.898 7.59755 13.018 6.53255C14.192 5.41655 15.893 4.48255 17.348 3.80455L19.045 3.07155L20.626 2.48255C20.8198 2.41576 21.0285 2.40477 21.2282 2.45081C21.4279 2.49686 21.6107 2.59811 21.7557 2.743C21.9007 2.88789 22.0021 3.07061 22.0483 3.27032C22.0945 3.47003 22.0836 3.6787 22.017 3.87255V3.87355ZM11.98 11.2925C12.4569 11.6278 12.8721 12.0433 13.207 12.5205C13.599 12.2935 14.002 12.0475 14.397 11.7885L14.367 11.7215C14.2024 11.3757 13.9791 11.0611 13.707 10.7915C13.4668 10.5502 13.1914 10.3469 12.89 10.1885L12.711 10.1025C12.452 10.4975 12.207 10.9005 11.98 11.2925ZM19.422 5.07755C19.039 5.23655 18.622 5.41755 18.192 5.61755C16.784 6.27455 15.326 7.09755 14.396 7.98155C14.2321 8.1388 14.0752 8.3033 13.926 8.47455C14.288 8.67455 14.708 8.96455 15.121 9.37855C15.535 9.79155 15.825 10.2115 16.025 10.5735C16.203 10.4175 16.369 10.2605 16.518 10.1035C17.402 9.17355 18.225 7.71555 18.882 6.30655C19.082 5.87655 19.263 5.46055 19.422 5.07755Z" fill="#001A33"/>
</g>
<defs>
<clipPath id="clip0_2469_596">
<rect width="24" height="24" fill="white"/>
</clipPath>
</defs>
</svg>
